# xmcd
#
# Track frame offsets: 
#        150
#        23380
#        45939
#        63044
#        82837
#        102181
#        126712
#        150515
#        167639
#        188681
#        233722
#
# Disc length: 3481 seconds
#
# Revision: 0
# Processed by: cddbd v1.5.1PL0 Copyright (c) Steve Scherf et al.
# Submitted via: ExactAudioCopy v0.95a5
#
DISCID=720d970b
DTITLE=Big Neal and The Blue Rhythm Band - Live Blues at the Bull
DYEAR=1998
DGENRE=Blues
TTITLE0=Dead Presidents
TTITLE1=I Saw You Leave Me
TTITLE2=Eyes
TTITLE3=Got Canned
TTITLE4=You Don't Know Me Very Well
TTITLE5=They Were Right
TTITLE6=Tell Me Why
TTITLE7=Bad Candy
TTITLE8=Coming Home Baby
TTITLE9=Woman Blues
TTITLE10=Don't Let Time Pass You By
EXTD=
EXTT0=
EXTT1=
EXTT2=
EXTT3=
EXTT4=
EXTT5=
EXTT6=
EXTT7=
EXTT8=
EXTT9=
EXTT10=
PLAYORDER=
